<svg xmlns="http://www.w3.org/2000/svg" xmlns:xlink="http://www.w3.org/1999/xlink" width="1920" zoomAndPan="magnify" viewBox="0 0 1440 809.999993" height="1080" preserveAspectRatio="xMidYMid meet" version="1.0"><defs><g/><clipPath id="5df1b4d9aa"><path d="M 1201 161.039062 L 1420 161.039062 L 1420 379.289062 L 1201 379.289062 Z M 1201 161.039062 " clip-rule="nonzero"/></clipPath></defs><g fill="#545454" fill-opacity="1"><g transform="translate(1202.555208, 548.280432)"><g><path d="M 109.15625 -173.421875 C 121.625 -173.421875 132.84375 -170.414062 142.8125 -164.40625 C 152.789062 -158.40625 160.78125 -150.300781 166.78125 -140.09375 C 172.789062 -129.894531 175.796875 -118.5625 175.796875 -106.09375 L 175.796875 0 L 149.953125 0 L 149.953125 -103.375 C 149.953125 -112.21875 147.851562 -120.207031 143.65625 -127.34375 C 139.46875 -134.488281 133.859375 -140.15625 126.828125 -144.34375 C 119.804688 -148.539062 111.875 -150.640625 103.03125 -150.640625 C 94.1875 -150.640625 86.082031 -148.539062 78.71875 -144.34375 C 71.351562 -140.15625 65.457031 -134.488281 61.03125 -127.34375 C 56.613281 -120.207031 54.40625 -112.21875 54.40625 -103.375 L 54.40625 0 L 28.90625 0 L 28.90625 -170.03125 L 54.40625 -170.03125 L 54.40625 -143.84375 C 60.53125 -152.90625 68.351562 -160.097656 77.875 -165.421875 C 87.394531 -170.753906 97.820312 -173.421875 109.15625 -173.421875 Z M 109.15625 -173.421875 "/></g></g></g><g fill="#545454" fill-opacity="1"><g transform="translate(5.577047, 548.280432)"><g><path d="M 161.859375 -132.953125 C 172.972656 -126.378906 181.875 -117.425781 188.5625 -106.09375 C 195.25 -94.757812 198.59375 -82.628906 198.59375 -69.703125 C 198.59375 -57.015625 195.53125 -45.34375 189.40625 -34.6875 C 183.28125 -24.03125 175.003906 -15.582031 164.578125 -9.34375 C 154.148438 -3.113281 142.476562 0 129.5625 0 L 28.90625 0 L 28.90625 -255.03125 L 121.0625 -255.03125 C 133.976562 -255.03125 145.648438 -252.023438 156.078125 -246.015625 C 166.503906 -240.015625 174.832031 -231.851562 181.0625 -221.53125 C 187.300781 -211.21875 190.421875 -199.601562 190.421875 -186.6875 C 190.421875 -175.582031 187.8125 -165.320312 182.59375 -155.90625 C 177.382812 -146.5 170.472656 -138.847656 161.859375 -132.953125 Z M 164.921875 -187.359375 C 164.921875 -195.972656 162.820312 -203.679688 158.625 -210.484375 C 154.4375 -217.285156 148.828125 -222.613281 141.796875 -226.46875 C 134.773438 -230.320312 126.957031 -232.25 118.34375 -232.25 L 54.40625 -232.25 L 54.40625 -142.484375 L 118.34375 -142.484375 C 126.957031 -142.484375 134.773438 -144.410156 141.796875 -148.265625 C 148.828125 -152.117188 154.4375 -157.441406 158.625 -164.234375 C 162.820312 -171.035156 164.921875 -178.742188 164.921875 -187.359375 Z M 126.5 -22.78125 C 135.113281 -22.78125 142.929688 -24.875 149.953125 -29.0625 C 156.984375 -33.257812 162.59375 -38.925781 166.78125 -46.0625 C 170.976562 -53.207031 173.078125 -60.976562 173.078125 -69.375 C 173.078125 -77.988281 170.976562 -86.09375 166.78125 -93.6875 C 162.59375 -101.28125 156.984375 -107.457031 149.953125 -112.21875 C 142.929688 -116.976562 135.113281 -119.359375 126.5 -119.359375 L 54.40625 -119.359375 L 54.40625 -22.78125 Z M 126.5 -22.78125 "/></g></g></g><g fill="#545454" fill-opacity="1"><g transform="translate(193.623953, 548.280432)"><g><path d="M 146.5625 -170.03125 L 172.40625 -170.03125 L 172.40625 0 L 146.5625 0 L 146.5625 -25.84375 C 140.4375 -17 132.613281 -9.910156 123.09375 -4.578125 C 113.570312 0.742188 103.144531 3.40625 91.8125 3.40625 C 79.570312 3.40625 68.40625 0.398438 58.3125 -5.609375 C 48.226562 -11.617188 40.238281 -19.722656 34.34375 -29.921875 C 28.445312 -40.117188 25.5 -51.453125 25.5 -63.921875 L 25.5 -170.03125 L 51 -170.03125 L 51 -66.65625 C 51 -58.039062 53.097656 -50.101562 57.296875 -42.84375 C 61.492188 -35.59375 67.160156 -29.867188 74.296875 -25.671875 C 81.441406 -21.472656 89.4375 -19.375 98.28125 -19.375 C 107.34375 -19.375 115.5 -21.472656 122.75 -25.671875 C 130.007812 -29.867188 135.789062 -35.59375 140.09375 -42.84375 C 144.40625 -50.101562 146.5625 -58.039062 146.5625 -66.65625 Z M 146.5625 -170.03125 "/></g></g></g><g fill="#545454" fill-opacity="1"><g transform="translate(372.149511, 548.280432)"><g><path d="M 153.015625 -255.03125 L 178.53125 -255.03125 L 178.53125 0 L 153.015625 0 L 153.015625 -29.921875 C 147.128906 -19.722656 139.253906 -11.617188 129.390625 -5.609375 C 119.523438 0.398438 107.679688 3.40625 93.859375 3.40625 C 78.210938 3.40625 64.773438 -0.445312 53.546875 -8.15625 C 42.328125 -15.863281 33.65625 -26.40625 27.53125 -39.78125 C 21.414062 -53.15625 18.359375 -68.234375 18.359375 -85.015625 C 18.359375 -102.015625 21.414062 -117.144531 27.53125 -130.40625 C 33.65625 -143.664062 42.328125 -154.148438 53.546875 -161.859375 C 64.773438 -169.566406 78.210938 -173.421875 93.859375 -173.421875 C 107.679688 -173.421875 119.523438 -170.414062 129.390625 -164.40625 C 139.253906 -158.40625 147.128906 -150.300781 153.015625 -140.09375 Z M 98.609375 -19.375 C 110.398438 -19.375 120.316406 -22.265625 128.359375 -28.046875 C 136.410156 -33.828125 142.53125 -41.707031 146.71875 -51.6875 C 150.914062 -61.664062 153.015625 -72.773438 153.015625 -85.015625 C 153.015625 -97.484375 150.914062 -108.644531 146.71875 -118.5 C 142.53125 -128.363281 136.410156 -136.1875 128.359375 -141.96875 C 120.316406 -147.75 110.398438 -150.640625 98.609375 -150.640625 C 86.828125 -150.640625 76.851562 -147.75 68.6875 -141.96875 C 60.53125 -136.1875 54.351562 -128.363281 50.15625 -118.5 C 45.957031 -108.644531 43.859375 -97.484375 43.859375 -85.015625 C 43.859375 -72.773438 45.957031 -61.664062 50.15625 -51.6875 C 54.351562 -41.707031 60.53125 -33.828125 68.6875 -28.046875 C 76.851562 -22.265625 86.828125 -19.375 98.609375 -19.375 Z M 98.609375 -19.375 "/></g></g></g><g fill="#545454" fill-opacity="1"><g transform="translate(555.775767, 548.280432)"><g><path d="M 153.015625 -170.03125 L 178.53125 -170.03125 L 178.53125 -2.046875 C 178.53125 14.273438 175.128906 29.007812 168.328125 42.15625 C 161.523438 55.3125 151.890625 65.742188 139.421875 73.453125 C 126.953125 81.160156 111.988281 85.015625 94.53125 85.015625 C 79.34375 85.015625 65.457031 81.046875 52.875 73.109375 C 40.289062 65.171875 30.035156 54.859375 22.109375 42.171875 L 38.765625 26.1875 C 45.335938 36.84375 53.328125 45.398438 62.734375 51.859375 C 72.140625 58.316406 82.738281 61.546875 94.53125 61.546875 C 107.226562 61.546875 117.882812 58.769531 126.5 53.21875 C 135.113281 47.664062 141.6875 40.070312 146.21875 30.4375 C 150.75 20.800781 153.015625 9.972656 153.015625 -2.046875 L 153.015625 -29.921875 C 147.128906 -19.722656 139.253906 -11.617188 129.390625 -5.609375 C 119.523438 0.398438 107.679688 3.40625 93.859375 3.40625 C 78.210938 3.40625 64.773438 -0.445312 53.546875 -8.15625 C 42.328125 -15.863281 33.65625 -26.40625 27.53125 -39.78125 C 21.414062 -53.15625 18.359375 -68.234375 18.359375 -85.015625 C 18.359375 -102.015625 21.414062 -117.144531 27.53125 -130.40625 C 33.65625 -143.664062 42.328125 -154.148438 53.546875 -161.859375 C 64.773438 -169.566406 78.210938 -173.421875 93.859375 -173.421875 C 107.679688 -173.421875 119.523438 -170.414062 129.390625 -164.40625 C 139.253906 -158.40625 147.128906 -150.300781 153.015625 -140.09375 Z M 98.609375 -19.375 C 110.398438 -19.375 120.316406 -22.265625 128.359375 -28.046875 C 136.410156 -33.828125 142.53125 -41.707031 146.71875 -51.6875 C 150.914062 -61.664062 153.015625 -72.773438 153.015625 -85.015625 C 153.015625 -97.484375 150.914062 -108.644531 146.71875 -118.5 C 142.53125 -128.363281 136.410156 -136.1875 128.359375 -141.96875 C 120.316406 -147.75 110.398438 -150.640625 98.609375 -150.640625 C 86.828125 -150.640625 76.851562 -147.75 68.6875 -141.96875 C 60.53125 -136.1875 54.351562 -128.363281 50.15625 -118.5 C 45.957031 -108.644531 43.859375 -97.484375 43.859375 -85.015625 C 43.859375 -72.773438 45.957031 -61.664062 50.15625 -51.6875 C 54.351562 -41.707031 60.53125 -33.828125 68.6875 -28.046875 C 76.851562 -22.265625 86.828125 -19.375 98.609375 -19.375 Z M 98.609375 -19.375 "/></g></g></g><g fill="#545454" fill-opacity="1"><g transform="translate(739.402023, 548.280432)"><g><path d="M 95.890625 -173.421875 C 111.984375 -173.421875 125.582031 -169.566406 136.6875 -161.859375 C 147.800781 -154.148438 156.191406 -143.4375 161.859375 -129.71875 C 167.523438 -116.007812 170.25 -100.085938 170.03125 -81.953125 L 170.03125 -76.84375 L 43.859375 -76.84375 C 44.546875 -58.707031 49.140625 -44.085938 57.640625 -32.984375 C 66.140625 -21.878906 78.890625 -16.328125 95.890625 -16.328125 C 106.316406 -16.328125 115.78125 -18.535156 124.28125 -22.953125 C 132.78125 -27.367188 139.640625 -33.660156 144.859375 -41.828125 L 168.328125 -39.453125 C 161.753906 -26.066406 152.34375 -15.578125 140.09375 -7.984375 C 127.851562 -0.390625 113.570312 3.40625 97.25 3.40625 C 80.25 3.40625 65.910156 -0.445312 54.234375 -8.15625 C 42.554688 -15.863281 33.65625 -26.40625 27.53125 -39.78125 C 21.414062 -53.15625 18.359375 -68.234375 18.359375 -85.015625 C 18.359375 -101.785156 21.414062 -116.859375 27.53125 -130.234375 C 33.65625 -143.609375 42.5 -154.148438 54.0625 -161.859375 C 65.625 -169.566406 79.566406 -173.421875 95.890625 -173.421875 Z M 95.890625 -153.015625 C 79.566406 -153.015625 66.984375 -147.515625 58.140625 -136.515625 C 49.304688 -125.523438 44.546875 -111.304688 43.859375 -93.859375 L 146.21875 -93.859375 C 145.3125 -111.765625 140.773438 -126.097656 132.609375 -136.859375 C 124.453125 -147.628906 112.210938 -153.015625 95.890625 -153.015625 Z M 95.890625 -153.015625 "/></g></g></g><g fill="#545454" fill-opacity="1"><g transform="translate(903.645422, 548.280432)"><g><path d="M 106.78125 -170.03125 L 106.78125 -149.953125 L 70.734375 -149.953125 L 70.734375 0 L 45.21875 0 L 45.21875 -149.953125 L 8.84375 -149.953125 L 8.84375 -170.03125 L 45.21875 -170.03125 L 45.21875 -217.625 L 70.734375 -217.625 L 70.734375 -170.03125 Z M 106.78125 -170.03125 "/></g></g></g><g fill="#545454" fill-opacity="1"><g transform="translate(995.798371, 548.280432)"><g><path d="M 119.015625 -255.03125 C 132.160156 -255.03125 144.0625 -251.859375 154.71875 -245.515625 C 165.375 -239.171875 173.875 -230.613281 180.21875 -219.84375 C 186.570312 -209.070312 189.75 -197.113281 189.75 -183.96875 C 189.75 -171.039062 186.570312 -159.304688 180.21875 -148.765625 C 173.875 -138.222656 165.375 -129.832031 154.71875 -123.59375 C 144.0625 -117.363281 132.160156 -114.25 119.015625 -114.25 L 54.40625 -114.25 L 54.40625 0 L 28.90625 0 L 28.90625 -255.03125 Z M 118.34375 -137.03125 C 127.175781 -137.03125 135.21875 -139.128906 142.46875 -143.328125 C 149.726562 -147.523438 155.507812 -153.25 159.8125 -160.5 C 164.125 -167.757812 166.28125 -175.804688 166.28125 -184.640625 C 166.28125 -193.484375 164.125 -201.53125 159.8125 -208.78125 C 155.507812 -216.039062 149.726562 -221.765625 142.46875 -225.953125 C 135.21875 -230.148438 127.175781 -232.25 118.34375 -232.25 L 54.40625 -232.25 L 54.40625 -137.03125 Z M 118.34375 -137.03125 "/></g></g></g><g clip-path="url(#5df1b4d9aa)"><path fill="#545454" d="M 1406.371094 240.863281 C 1404.859375 242.371094 1402.851562 243.203125 1400.71875 243.203125 C 1398.585938 243.203125 1396.578125 242.371094 1395.070312 240.863281 L 1391.207031 237 C 1390.203125 235.996094 1388.820312 235.4375 1387.40625 235.484375 C 1385.988281 235.519531 1384.644531 236.132812 1383.691406 237.1875 L 1337.605469 288.132812 C 1336.386719 289.476562 1335.960938 291.359375 1336.480469 293.097656 C 1341.121094 308.636719 1340.53125 325.476562 1334.808594 340.53125 C 1334.558594 341.199219 1334.066406 341.617188 1333.339844 341.769531 C 1332.367188 341.980469 1331.195312 341.605469 1330.441406 340.851562 L 1276.667969 287.078125 C 1276.664062 287.074219 1276.664062 287.074219 1276.660156 287.070312 L 1239.3125 249.722656 C 1238.554688 248.964844 1238.183594 247.804688 1238.394531 246.820312 C 1238.546875 246.101562 1238.964844 245.605469 1239.640625 245.351562 C 1248.003906 242.175781 1256.792969 240.566406 1265.761719 240.566406 C 1272.972656 240.566406 1280.136719 241.617188 1287.058594 243.683594 C 1288.796875 244.199219 1290.679688 243.777344 1292.023438 242.558594 L 1342.980469 196.480469 C 1344.035156 195.527344 1344.652344 194.183594 1344.6875 192.765625 C 1344.726562 191.34375 1344.175781 189.972656 1343.171875 188.96875 L 1339.296875 185.085938 C 1336.1875 181.976562 1336.1875 176.914062 1339.296875 173.800781 C 1340.804688 172.296875 1342.808594 171.46875 1344.941406 171.46875 C 1347.074219 171.46875 1349.078125 172.296875 1350.585938 173.800781 L 1406.363281 229.582031 C 1409.46875 232.691406 1409.46875 237.753906 1406.371094 240.863281 Z M 1239.007812 341.417969 L 1273.441406 298.53125 L 1282.214844 307.304688 Z M 1413.707031 222.246094 L 1357.925781 166.464844 C 1354.453125 162.996094 1349.84375 161.089844 1344.941406 161.089844 C 1340.035156 161.089844 1335.425781 163 1331.960938 166.464844 C 1324.804688 173.621094 1324.804688 185.265625 1331.957031 192.421875 L 1331.976562 192.441406 L 1287.1875 232.945312 C 1280.1875 231.113281 1272.996094 230.1875 1265.761719 230.1875 C 1255.53125 230.1875 1245.503906 232.027344 1235.964844 235.644531 C 1232.011719 237.140625 1229.121094 240.511719 1228.246094 244.652344 C 1227.296875 249.054688 1228.722656 253.8125 1231.972656 257.0625 L 1266.058594 291.144531 L 1202.289062 370.582031 C 1200.636719 372.636719 1200.789062 375.609375 1202.648438 377.484375 C 1203.660156 378.5 1204.992188 379.019531 1206.335938 379.019531 C 1207.464844 379.019531 1208.601562 378.652344 1209.550781 377.902344 L 1289.605469 314.691406 L 1323.101562 348.191406 C 1325.65625 350.742188 1329.179688 352.207031 1332.765625 352.207031 C 1333.695312 352.207031 1334.617188 352.113281 1335.503906 351.921875 C 1339.652344 351.042969 1343.023438 348.15625 1344.511719 344.207031 C 1350.691406 327.960938 1351.628906 309.878906 1347.21875 292.972656 L 1387.726562 248.195312 L 1387.734375 248.207031 C 1391.207031 251.671875 1395.816406 253.578125 1400.71875 253.578125 C 1405.625 253.578125 1410.234375 251.671875 1413.710938 248.199219 C 1420.851562 241.039062 1420.847656 229.398438 1413.707031 222.246094 " fill-opacity="1" fill-rule="nonzero"/></g><path fill="#545454" d="M 1346.425781 208.152344 L 1306.210938 248.371094 C 1304.1875 250.398438 1304.1875 253.683594 1306.210938 255.710938 C 1307.226562 256.722656 1308.550781 257.230469 1309.878906 257.230469 C 1311.210938 257.230469 1312.539062 256.722656 1313.550781 255.710938 L 1353.765625 215.488281 C 1355.789062 213.464844 1355.789062 210.175781 1353.765625 208.152344 C 1351.738281 206.125 1348.453125 206.125 1346.425781 208.152344 " fill-opacity="1" fill-rule="nonzero"/><g fill="#545454" fill-opacity="1"><g transform="translate(714.598914, 409.499999)"><g><path d="M 3.75 -8.1875 L 3.75 -7.5 C 4.46875 -7.726562 5.03125 -7.910156 5.4375 -8.046875 C 5.851562 -8.179688 6.125 -8.257812 6.25 -8.28125 C 6.507812 -8.34375 6.738281 -8.375 6.9375 -8.375 C 7.332031 -8.375 7.695312 -8.296875 8.03125 -8.140625 C 8.375 -7.992188 8.628906 -7.753906 8.796875 -7.421875 C 8.847656 -7.316406 8.90625 -7.175781 8.96875 -7 C 9.050781 -6.707031 9.09375 -6.363281 9.09375 -5.96875 L 9.09375 -0.734375 L 10.328125 -0.25 L 10.328125 0.015625 L 6.4375 0.015625 L 6.4375 -0.25 L 7.65625 -0.734375 L 7.65625 -6.03125 C 7.65625 -7.039062 7.160156 -7.546875 6.171875 -7.546875 C 6.085938 -7.546875 6.003906 -7.539062 5.921875 -7.53125 C 5.847656 -7.53125 5.765625 -7.519531 5.671875 -7.5 C 5.503906 -7.488281 4.867188 -7.363281 3.765625 -7.125 L 3.765625 -0.734375 L 4.984375 -0.25 L 4.984375 0.015625 L 1.140625 0.015625 L 1.140625 -0.25 L 2.296875 -0.734375 L 2.328125 -6.828125 L 1.40625 -7.234375 L 1.40625 -7.5 Z M 3.75 -8.1875 "/></g></g></g></svg>