<svg xmlns="http://www.w3.org/2000/svg" xmlns:xlink="http://www.w3.org/1999/xlink" width="1920" zoomAndPan="magnify" viewBox="0 0 1440 809.999993" height="1080" preserveAspectRatio="xMidYMid meet" version="1.0"><defs><g/><clipPath id="44e2a1a5cd"><path d="M 1149.351562 141.664062 L 1415 141.664062 L 1415 405.664062 L 1149.351562 405.664062 Z M 1149.351562 141.664062 " clip-rule="nonzero"/></clipPath></defs><g clip-path="url(#44e2a1a5cd)"><path fill="#545454" d="M 1398.636719 238.371094 C 1396.808594 240.199219 1394.375 241.207031 1391.792969 241.207031 C 1389.207031 241.207031 1386.773438 240.199219 1384.949219 238.375 L 1380.265625 233.695312 C 1379.046875 232.476562 1377.375 231.800781 1375.664062 231.855469 C 1373.941406 231.898438 1372.3125 232.644531 1371.160156 233.921875 L 1315.324219 295.640625 C 1313.847656 297.269531 1313.332031 299.550781 1313.960938 301.65625 C 1319.585938 320.484375 1318.867188 340.890625 1311.933594 359.128906 C 1311.628906 359.9375 1311.035156 360.445312 1310.152344 360.628906 C 1308.976562 360.886719 1307.558594 360.429688 1306.640625 359.515625 L 1241.492188 294.367188 C 1241.488281 294.363281 1241.488281 294.359375 1241.484375 294.359375 L 1196.234375 249.105469 C 1195.316406 248.1875 1194.867188 246.78125 1195.121094 245.589844 C 1195.308594 244.71875 1195.8125 244.121094 1196.628906 243.8125 C 1206.765625 239.964844 1217.414062 238.015625 1228.28125 238.015625 C 1237.015625 238.015625 1245.695312 239.285156 1254.085938 241.789062 C 1256.1875 242.414062 1258.46875 241.902344 1260.097656 240.425781 L 1321.835938 184.601562 C 1323.113281 183.445312 1323.863281 181.820312 1323.90625 180.097656 C 1323.949219 178.378906 1323.285156 176.714844 1322.070312 175.496094 L 1317.375 170.792969 C 1313.605469 167.027344 1313.605469 160.894531 1317.375 157.125 C 1319.199219 155.300781 1321.628906 154.296875 1324.210938 154.296875 C 1326.792969 154.296875 1329.226562 155.300781 1331.050781 157.125 L 1398.628906 224.703125 C 1402.390625 228.472656 1402.390625 234.605469 1398.636719 238.371094 Z M 1195.867188 360.203125 L 1237.585938 308.238281 L 1248.214844 318.867188 Z M 1407.523438 215.816406 L 1339.941406 148.230469 C 1335.734375 144.03125 1330.152344 141.722656 1324.210938 141.722656 C 1318.269531 141.722656 1312.683594 144.035156 1308.484375 148.234375 C 1299.8125 156.90625 1299.8125 171.011719 1308.480469 179.683594 L 1308.503906 179.703125 L 1254.238281 228.777344 C 1245.757812 226.5625 1237.042969 225.441406 1228.28125 225.441406 C 1215.886719 225.441406 1203.734375 227.667969 1192.175781 232.050781 C 1187.390625 233.863281 1183.890625 237.949219 1182.828125 242.960938 C 1181.675781 248.300781 1183.40625 254.058594 1187.34375 257.996094 L 1228.640625 299.292969 L 1151.375 395.535156 C 1149.375 398.027344 1149.5625 401.628906 1151.8125 403.898438 C 1153.039062 405.128906 1154.65625 405.757812 1156.28125 405.757812 C 1157.652344 405.757812 1159.027344 405.3125 1160.175781 404.40625 L 1257.167969 327.820312 L 1297.753906 368.40625 C 1300.847656 371.5 1305.113281 373.273438 1309.460938 373.273438 C 1310.582031 373.273438 1311.703125 373.160156 1312.777344 372.925781 C 1317.804688 371.859375 1321.886719 368.363281 1323.691406 363.582031 C 1331.175781 343.894531 1332.3125 321.992188 1326.972656 301.507812 L 1376.050781 247.257812 L 1376.058594 247.269531 C 1380.265625 251.46875 1385.851562 253.78125 1391.792969 253.78125 C 1397.730469 253.78125 1403.316406 251.46875 1407.53125 247.261719 C 1416.179688 238.585938 1416.179688 224.480469 1407.523438 215.816406 " fill-opacity="1" fill-rule="nonzero"/></g><path fill="#545454" d="M 1326.007812 198.742188 L 1277.289062 247.46875 C 1274.832031 249.925781 1274.832031 253.90625 1277.289062 256.359375 C 1278.515625 257.589844 1280.125 258.203125 1281.730469 258.203125 C 1283.34375 258.203125 1284.953125 257.589844 1286.179688 256.359375 L 1334.898438 207.628906 C 1337.355469 205.175781 1337.355469 201.191406 1334.898438 198.738281 C 1332.445312 196.285156 1328.464844 196.285156 1326.007812 198.742188 " fill-opacity="1" fill-rule="nonzero"/><g fill="#545454" fill-opacity="1"><g transform="translate(1155.191118, 559.483883)"><g><path d="M 99.109375 -157.46875 C 110.429688 -157.46875 120.617188 -154.738281 129.671875 -149.28125 C 138.734375 -143.820312 145.988281 -136.460938 151.4375 -127.203125 C 156.894531 -117.941406 159.625 -107.648438 159.625 -96.328125 L 159.625 0 L 136.15625 0 L 136.15625 -93.859375 C 136.15625 -101.890625 134.25 -109.144531 130.4375 -115.625 C 126.632812 -122.113281 121.539062 -127.257812 115.15625 -131.0625 C 108.78125 -134.875 101.578125 -136.78125 93.546875 -136.78125 C 85.523438 -136.78125 78.164062 -134.875 71.46875 -131.0625 C 64.78125 -127.257812 59.429688 -122.113281 55.421875 -115.625 C 51.410156 -109.144531 49.40625 -101.890625 49.40625 -93.859375 L 49.40625 0 L 26.25 0 L 26.25 -154.375 L 49.40625 -154.375 L 49.40625 -130.59375 C 54.957031 -138.832031 62.054688 -145.367188 70.703125 -150.203125 C 79.347656 -155.046875 88.816406 -157.46875 99.109375 -157.46875 Z M 99.109375 -157.46875 "/></g></g></g><g fill="#545454" fill-opacity="1"><g transform="translate(376.342949, 559.491222)"><g><path d="M 138.9375 -231.5625 L 162.09375 -231.5625 L 162.09375 0 L 138.9375 0 L 138.9375 -27.171875 C 133.582031 -17.910156 126.425781 -10.550781 117.46875 -5.09375 C 108.519531 0.363281 97.769531 3.09375 85.21875 3.09375 C 71.007812 3.09375 58.8125 -0.40625 48.625 -7.40625 C 38.4375 -14.40625 30.5625 -23.976562 25 -36.125 C 19.445312 -48.269531 16.671875 -61.957031 16.671875 -77.1875 C 16.671875 -92.625 19.445312 -106.363281 25 -118.40625 C 30.5625 -130.445312 38.4375 -139.96875 48.625 -146.96875 C 58.8125 -153.96875 71.007812 -157.46875 85.21875 -157.46875 C 97.769531 -157.46875 108.519531 -154.738281 117.46875 -149.28125 C 126.425781 -143.820312 133.582031 -136.460938 138.9375 -127.203125 Z M 89.53125 -17.59375 C 100.238281 -17.59375 109.242188 -20.21875 116.546875 -25.46875 C 123.859375 -30.71875 129.414062 -37.867188 133.21875 -46.921875 C 137.03125 -55.984375 138.9375 -66.070312 138.9375 -77.1875 C 138.9375 -88.507812 137.03125 -98.644531 133.21875 -107.59375 C 129.414062 -116.550781 123.859375 -123.65625 116.546875 -128.90625 C 109.242188 -134.15625 100.238281 -136.78125 89.53125 -136.78125 C 78.832031 -136.78125 69.773438 -134.15625 62.359375 -128.90625 C 54.953125 -123.65625 49.34375 -116.550781 45.53125 -107.59375 C 41.726562 -98.644531 39.828125 -88.507812 39.828125 -77.1875 C 39.828125 -66.070312 41.726562 -55.984375 45.53125 -46.921875 C 49.34375 -37.867188 54.953125 -30.71875 62.359375 -25.46875 C 69.773438 -20.21875 78.832031 -17.59375 89.53125 -17.59375 Z M 89.53125 -17.59375 "/></g></g></g><g fill="#545454" fill-opacity="1"><g transform="translate(543.071183, 559.491222)"><g><path d="M 138.9375 -154.375 L 162.09375 -154.375 L 162.09375 -1.859375 C 162.09375 12.960938 159.003906 26.34375 152.828125 38.28125 C 146.648438 50.21875 137.898438 59.6875 126.578125 66.6875 C 115.265625 73.6875 101.679688 77.1875 85.828125 77.1875 C 72.035156 77.1875 59.425781 73.582031 48 66.375 C 36.582031 59.175781 27.269531 49.8125 20.0625 38.28125 L 35.203125 23.78125 C 41.171875 33.445312 48.425781 41.210938 56.96875 47.078125 C 65.507812 52.953125 75.128906 55.890625 85.828125 55.890625 C 97.359375 55.890625 107.035156 53.363281 114.859375 48.3125 C 122.679688 43.269531 128.648438 36.375 132.765625 27.625 C 136.878906 18.882812 138.9375 9.054688 138.9375 -1.859375 L 138.9375 -27.171875 C 133.582031 -17.910156 126.425781 -10.550781 117.46875 -5.09375 C 108.519531 0.363281 97.769531 3.09375 85.21875 3.09375 C 71.007812 3.09375 58.8125 -0.40625 48.625 -7.40625 C 38.4375 -14.40625 30.5625 -23.976562 25 -36.125 C 19.445312 -48.269531 16.671875 -61.957031 16.671875 -77.1875 C 16.671875 -92.625 19.445312 -106.363281 25 -118.40625 C 30.5625 -130.445312 38.4375 -139.96875 48.625 -146.96875 C 58.8125 -153.96875 71.007812 -157.46875 85.21875 -157.46875 C 97.769531 -157.46875 108.519531 -154.738281 117.46875 -149.28125 C 126.425781 -143.820312 133.582031 -136.460938 138.9375 -127.203125 Z M 89.53125 -17.59375 C 100.238281 -17.59375 109.242188 -20.21875 116.546875 -25.46875 C 123.859375 -30.71875 129.414062 -37.867188 133.21875 -46.921875 C 137.03125 -55.984375 138.9375 -66.070312 138.9375 -77.1875 C 138.9375 -88.507812 137.03125 -98.644531 133.21875 -107.59375 C 129.414062 -116.550781 123.859375 -123.65625 116.546875 -128.90625 C 109.242188 -134.15625 100.238281 -136.78125 89.53125 -136.78125 C 78.832031 -136.78125 69.773438 -134.15625 62.359375 -128.90625 C 54.953125 -123.65625 49.34375 -116.550781 45.53125 -107.59375 C 41.726562 -98.644531 39.828125 -88.507812 39.828125 -77.1875 C 39.828125 -66.070312 41.726562 -55.984375 45.53125 -46.921875 C 49.34375 -37.867188 54.953125 -30.71875 62.359375 -25.46875 C 69.773438 -20.21875 78.832031 -17.59375 89.53125 -17.59375 Z M 89.53125 -17.59375 "/></g></g></g><g fill="#545454" fill-opacity="1"><g transform="translate(709.799416, 559.491222)"><g><path d="M 87.0625 -157.46875 C 101.675781 -157.46875 114.023438 -153.96875 124.109375 -146.96875 C 134.203125 -139.96875 141.820312 -130.238281 146.96875 -117.78125 C 152.113281 -105.332031 154.582031 -90.875 154.375 -74.40625 L 154.375 -69.78125 L 39.828125 -69.78125 C 40.441406 -53.3125 44.609375 -40.03125 52.328125 -29.9375 C 60.046875 -19.851562 71.625 -14.8125 87.0625 -14.8125 C 96.53125 -14.8125 105.125 -16.816406 112.84375 -20.828125 C 120.5625 -24.847656 126.789062 -30.5625 131.53125 -37.96875 L 152.828125 -35.8125 C 146.859375 -23.664062 138.316406 -14.144531 127.203125 -7.25 C 116.085938 -0.351562 103.117188 3.09375 88.296875 3.09375 C 72.859375 3.09375 59.835938 -0.40625 49.234375 -7.40625 C 38.640625 -14.40625 30.5625 -23.976562 25 -36.125 C 19.445312 -48.269531 16.671875 -61.957031 16.671875 -77.1875 C 16.671875 -92.414062 19.445312 -106.101562 25 -118.25 C 30.5625 -130.394531 38.59375 -139.96875 49.09375 -146.96875 C 59.59375 -153.96875 72.25 -157.46875 87.0625 -157.46875 Z M 87.0625 -138.9375 C 72.25 -138.9375 60.828125 -133.941406 52.796875 -123.953125 C 44.765625 -113.972656 40.441406 -101.0625 39.828125 -85.21875 L 132.765625 -85.21875 C 131.941406 -101.476562 127.820312 -114.492188 120.40625 -124.265625 C 113 -134.046875 101.882812 -138.9375 87.0625 -138.9375 Z M 87.0625 -138.9375 "/></g></g></g><g fill="#545454" fill-opacity="1"><g transform="translate(858.928521, 559.491222)"><g><path d="M 96.953125 -154.375 L 96.953125 -136.15625 L 64.21875 -136.15625 L 64.21875 0 L 41.0625 0 L 41.0625 -136.15625 L 8.03125 -136.15625 L 8.03125 -154.375 L 41.0625 -154.375 L 41.0625 -197.59375 L 64.21875 -197.59375 L 64.21875 -154.375 Z M 96.953125 -154.375 "/></g></g></g><g fill="#545454" fill-opacity="1"><g transform="translate(209.105753, 559.82988)"><g><path d="M 133.046875 -154.359375 L 156.515625 -154.359375 L 156.515625 0 L 133.046875 0 L 133.046875 -23.46875 C 127.492188 -15.4375 120.394531 -9 111.75 -4.15625 C 103.101562 0.675781 93.632812 3.09375 83.34375 3.09375 C 72.238281 3.09375 62.101562 0.363281 52.9375 -5.09375 C 43.78125 -10.550781 36.523438 -17.910156 31.171875 -27.171875 C 25.828125 -36.429688 23.15625 -46.71875 23.15625 -58.03125 L 23.15625 -154.359375 L 46.3125 -154.359375 L 46.3125 -60.5 C 46.3125 -52.6875 48.210938 -45.484375 52.015625 -38.890625 C 55.828125 -32.304688 60.972656 -27.109375 67.453125 -23.296875 C 73.929688 -19.492188 81.1875 -17.59375 89.21875 -17.59375 C 97.445312 -17.59375 104.851562 -19.492188 111.4375 -23.296875 C 118.03125 -27.109375 123.28125 -32.304688 127.1875 -38.890625 C 131.09375 -45.484375 133.046875 -52.6875 133.046875 -60.5 Z M 133.046875 -154.359375 "/></g></g></g><g fill="#545454" fill-opacity="1"><g transform="translate(26.908298, 559.826218)"><g><path d="M 146.9375 -120.703125 C 157.019531 -114.734375 165.097656 -106.601562 171.171875 -96.3125 C 177.242188 -86.019531 180.28125 -75.007812 180.28125 -63.28125 C 180.28125 -51.757812 177.5 -41.160156 171.9375 -31.484375 C 166.382812 -21.816406 158.875 -14.148438 149.40625 -8.484375 C 139.945312 -2.828125 129.347656 0 117.609375 0 L 26.234375 0 L 26.234375 -231.53125 L 109.890625 -231.53125 C 121.628906 -231.53125 132.226562 -228.800781 141.6875 -223.34375 C 151.15625 -217.894531 158.71875 -210.488281 164.375 -201.125 C 170.039062 -191.757812 172.875 -181.210938 172.875 -169.484375 C 172.875 -159.398438 170.503906 -150.085938 165.765625 -141.546875 C 161.035156 -133.003906 154.757812 -126.054688 146.9375 -120.703125 Z M 149.71875 -170.09375 C 149.71875 -177.914062 147.8125 -184.910156 144 -191.078125 C 140.195312 -197.253906 135.101562 -202.09375 128.71875 -205.59375 C 122.34375 -209.09375 115.242188 -210.84375 107.421875 -210.84375 L 49.390625 -210.84375 L 49.390625 -129.34375 L 107.421875 -129.34375 C 115.242188 -129.34375 122.34375 -131.09375 128.71875 -134.59375 C 135.101562 -138.09375 140.195312 -142.925781 144 -149.09375 C 147.8125 -155.269531 149.71875 -162.269531 149.71875 -170.09375 Z M 114.84375 -20.6875 C 122.65625 -20.6875 129.75 -22.585938 136.125 -26.390625 C 142.507812 -30.203125 147.601562 -35.347656 151.40625 -41.828125 C 155.21875 -48.304688 157.125 -55.351562 157.125 -62.96875 C 157.125 -70.789062 155.21875 -78.148438 151.40625 -85.046875 C 147.601562 -91.941406 142.507812 -97.550781 136.125 -101.875 C 129.75 -106.195312 122.65625 -108.359375 114.84375 -108.359375 L 49.390625 -108.359375 L 49.390625 -20.6875 Z M 114.84375 -20.6875 "/></g></g></g><g fill="#545454" fill-opacity="1"><g transform="translate(957.253973, 559.833543)"><g><path d="M 108.046875 -231.53125 C 119.984375 -231.53125 130.785156 -228.644531 140.453125 -222.875 C 150.128906 -217.113281 157.847656 -209.34375 163.609375 -199.5625 C 169.367188 -189.789062 172.25 -178.941406 172.25 -167.015625 C 172.25 -155.273438 169.367188 -144.617188 163.609375 -135.046875 C 157.847656 -125.484375 150.128906 -117.867188 140.453125 -112.203125 C 130.785156 -106.546875 119.984375 -103.71875 108.046875 -103.71875 L 49.390625 -103.71875 L 49.390625 0 L 26.234375 0 L 26.234375 -231.53125 Z M 107.421875 -124.40625 C 115.453125 -124.40625 122.757812 -126.304688 129.34375 -130.109375 C 135.925781 -133.921875 141.171875 -139.117188 145.078125 -145.703125 C 148.992188 -152.296875 150.953125 -159.601562 150.953125 -167.625 C 150.953125 -175.65625 148.992188 -182.960938 145.078125 -189.546875 C 141.171875 -196.128906 135.925781 -201.320312 129.34375 -205.125 C 122.757812 -208.9375 115.453125 -210.84375 107.421875 -210.84375 L 49.390625 -210.84375 L 49.390625 -124.40625 Z M 107.421875 -124.40625 "/></g></g></g></svg>